PathFileType	4	(X/Y/Z)	C:/Users/opensim2020/Desktop/walking_exp_matlab/subject06_walking18_straight_04.trc																																																																																																																																											
DataRate	CameraRate	NumFrames	NumMarkers	Units	OrigDataRate	OrigDataStartFrame	OrigNumFrames																																																																																																																																							
100	100	8	47	mm	100	4827	409																																																																																																																																							
Frame#	Time	LFHD			RFHD			LBHD			RBHD			C7			T10			CLAV			STRN			RBAK			LSHO			LUPA			LELB			LFRM			LWRA			LWRB			LFIN			RSHO			RUPA			RELB			RFRM			RWRA			RWRB			RFIN			LASI			RASI			LPSI			RPSI			LTHI			LKNE			LTIB			LANK			LHEE			LTOE			RTHI			RKNE			RTIB			RANK			RHEE			RTOE			*39			*40			*41			*42			*43			*44			*45			*46		
		X1	Y1	Z1	X2	Y2	Z2	X3	Y3	Z3	X4	Y4	Z4	X5	Y5	Z5	X6	Y6	Z6	X7	Y7	Z7	X8	Y8	Z8	X9	Y9	Z9	X10	Y10	Z10	X11	Y11	Z11	X12	Y12	Z12	X13	Y13	Z13	X14	Y14	Z14	X15	Y15	Z15	X16	Y16	Z16	X17	Y17	Z17	X18	Y18	Z18	X19	Y19	Z19	X20	Y20	Z20	X21	Y21	Z21	X22	Y22	Z22	X23	Y23	Z23	X24	Y24	Z24	X25	Y25	Z25	X26	Y26	Z26	X27	Y27	Z27	X28	Y28	Z28	X29	Y29	Z29	X30	Y30	Z30	X31	Y31	Z31	X32	Y32	Z32	X33	Y33	Z33	X34	Y34	Z34	X35	Y35	Z35	X36	Y36	Z36	X37	Y37	Z37	X38	Y38	Z38	X39	Y39	Z39	X40	Y40	Z40	X41	Y41	Z41	X42	Y42	Z42	X43	Y43	Z43	X44	Y44	Z44	X45	Y45	Z45	X46	Y46	Z46	X47	Y47	Z47
																																																																																																																																														
307	3.06	624.59869	1672.40674	965.315	629.23761	1659.76367	1096.68201	492.49994	1615.2998	968.41772	498.72293	1607.19287	1097.59302	497.55692	1455.75049	1023.36304	473.73172	1126.78516	1033.271	608.40778	1382.25134	1018.88171	653.19653	1206.49109	1008.64563	434.93634	1282.08044	1106.3949	547.72778	1411.44006	859.52399	553.35651	1209.27454	784.53796	559.01367	1097.2301	769.34845	611.8222	956.71857	745.23895	695.77679	858.84393	785.88324	638.21857	840.45392	749.14404	697.51373	772.35217	745.6629	571.5365	1412.63586	1182.04883	534.63647	1214.55652	1270.88049	542.50006	1091.61157	1277.63342	567.24597	973.27783	1286.74756	636.8432	842.87909	1242.29163	586.09412	837.10706	1285.86682	629.49585	764.47241	1279.32825	635.79761	963.05341	909.00757	659.44421	971.91211	1129.17358	482.50333	995.48566	952.13824	505.5845	1003.41119	1119.323	547.76837	648.81519	855.83704	539.48676	484.55371	870.35785	364.86047	299.11389	873.30017	258.88812	160.96027	908.53906	219.2662	169.13589	956.30347	355.89075	54.333	903.29376	610.19305	639.13965	1186.54993	615.36078	514.1167	1160.18018	578.77252	249.99312	1153.60938	574.50708	65.78214	1097.7644	535.25305	41.51995	1054.62976	731.85767	31.15994	1082.58179	525.66626	1707.36438	1028.09961	NaN	NaN	NaN	NaN	NaN	NaN	NaN	NaN	NaN	NaN	NaN	NaN	NaN	NaN	NaN	NaN	NaN	NaN	NaN	NaN	NaN
308	3.07	630.6217	1672.54675	966.01575	635.72559	1660.06226	1097.36707	498.4678	1615.46533	969.71118	505.21524	1607.47437	1098.81018	503.35709	1456.14734	1025.10034	479.45645	1127.01746	1034.5354	614.31787	1382.37915	1019.84302	658.745	1206.57593	1009.54608	440.90286	1282.43787	1107.74744	553.2597	1411.6698	860.6662	557.52679	1209.53748	785.6908	561.80902	1097.52161	770.61554	612.62622	956.19568	745.16962	695.3429	856.90588	785.5177	637.04443	839.49493	749.35199	695.00696	770.45282	745.17078	577.77545	1412.75049	1183.15027	542.11627	1214.54248	1271.89673	550.25616	1091.71887	1278.89478	575.29785	973.43927	1287.94434	644.7309	843.1698	1242.99817	594.12494	837.29089	1287.203	637.69495	764.76154	1280.4071	642.15588	963.67297	910.08789	664.58722	972.05646	1130.51611	488.27939	995.77582	952.98029	510.84412	1003.54321	1120.18018	556.4823	648.93842	856.59698	549.88391	484.72195	871.18127	375.60898	299.34702	874.12457	270.28934	160.75974	909.01978	230.99725	167.85063	957.3399	368.07132	55.47628	900.54291	613.50256	639.01648	1187.20959	617.86176	513.89545	1161.15674	579.6178	249.94391	1154.09436	574.5061	65.87543	1097.88782	535.18304	41.58497	1054.68701	731.83307	31.07884	1082.70276	531.90619	1707.65051	1029.14868	NaN	NaN	NaN	NaN	NaN	NaN	NaN	NaN	NaN	NaN	NaN	NaN	NaN	NaN	NaN	NaN	NaN	NaN	NaN	NaN	NaN
309	3.08	636.57318	1672.67212	966.77856	642.23981	1660.30017	1098.0647	504.36133	1615.73083	971.05627	511.6022	1608.00183	1100.09766	509.30753	1455.94812	1026.52856	484.92728	1127.48096	1035.45337	620.10132	1382.57629	1020.76318	664.32428	1206.74658	1010.46796	446.65616	1282.82043	1109.07983	558.79614	1412.10754	861.67816	561.54358	1209.92188	786.80304	564.78918	1098.02258	771.60675	613.36566	955.80945	746.23792	694.60638	854.98767	785.38702	635.79004	838.68048	749.57941	692.71222	768.77527	744.74481	584.00726	1412.88794	1184.01392	548.98083	1214.57288	1273.01611	557.77673	1091.85022	1280.05249	583.02954	973.68524	1289.11816	652.29846	843.54498	1243.68213	602.33984	837.64886	1288.4032	645.81555	765.15936	1281.59509	648.10858	964.17908	911.38495	669.64862	972.17902	1131.87671	494.09296	996.08179	953.74762	515.9693	1003.69348	1121.05994	565.01831	649.16162	857.45038	560.17731	485.01389	872.06256	386.80157	299.19501	874.98566	282.42407	159.87567	909.46576	243.42307	165.86298	958.35736	381.54236	56.32658	898.26874	616.76239	638.94305	1188.13086	620.33746	513.66351	1162.09851	580.44556	249.94995	1154.50903	574.42065	65.79365	1098.01245	535.12671	41.66752	1054.7998	731.80157	31.06208	1082.78662	538.21954	1707.98376	1030.23669	654.32098	841.29999	1245.37683	NaN	NaN	NaN	NaN	NaN	NaN	NaN	NaN	NaN	NaN	NaN	NaN	NaN	NaN	NaN	NaN	NaN	NaN
310	3.09	642.64172	1672.77576	967.44513	648.65259	1660.49475	1098.81152	510.14996	1616.0387	972.42963	518.00458	1608.36597	1101.34314	515.18964	1456.5376	1027.18994	490.4335	1127.85352	1036.38403	625.82379	1382.79443	1021.63239	669.86017	1206.96204	1011.31982	452.57913	1283.18359	1110.32056	564.15198	1412.51526	862.65393	565.44128	1210.38379	787.88245	567.60504	1098.47009	772.80292	613.76459	955.56897	746.90283	693.94684	853.495	785.18079	634.44946	838.17896	749.9671	690.52496	767.54572	744.15991	590.06964	1413.18542	1184.89429	556.22583	1214.86304	1274.15137	565.23096	1092.15723	1281.08875	590.82074	974.00433	1290.16016	659.92535	843.99335	1244.23425	610.14832	837.96143	1289.6311	653.71924	765.58813	1282.68262	654.05115	964.6922	912.67145	674.68817	972.27936	1133.23279	499.785	996.43591	954.40112	521.14972	1003.83899	1121.87769	573.37744	649.42426	858.26373	570.3432	485.37244	872.9964	398.49133	298.45227	875.69562	295.30319	158.24997	909.86029	256.56625	163.08165	959.17542	395.4566	56.36804	896.24182	620.16248	638.82703	1188.77258	622.78967	513.4743	1162.91663	581.29895	250.00002	1154.83313	574.36041	65.86801	1098.10291	534.63971	42.02243	1054.65564	731.78662	31.0048	1082.90747	544.51233	1708.32129	1031.29639	NaN	NaN	NaN	NaN	NaN	NaN	NaN	NaN	NaN	NaN	NaN	NaN	NaN	NaN	NaN	NaN	NaN	NaN	NaN	NaN	NaN
311	3.1	648.55756	1672.97998	968.21613	655.08002	1660.60254	1099.58069	516.06458	1616.49927	973.53723	524.31403	1608.79578	1102.50305	520.95624	1456.68481	1028.39966	496.11694	1127.77942	1037.38916	631.45386	1383.02673	1022.45453	675.38684	1207.20422	1012.18793	458.26819	1283.64294	1111.42627	569.57043	1413.18896	863.46411	569.21039	1210.87195	788.8847	570.26575	1098.93787	773.95367	614.10498	955.64606	747.36407	693.12622	852.12646	785.10052	633.14282	837.73389	750.34747	688.04291	766.18048	744.20563	595.94409	1413.39148	1185.7168	562.90485	1214.98071	1274.98486	572.3891	1092.42542	1282.09485	598.26013	974.40656	1291.25659	667.82947	844.48181	1245.37805	618.05542	838.53558	1290.85046	661.88251	766.24939	1284.11853	659.97864	965.21594	913.96411	679.70709	972.33398	1134.52136	505.44949	996.83691	955.06396	526.25598	1003.94238	1122.55762	581.87378	649.5036	859.28949	580.26636	485.78949	873.90631	410.55273	297.3382	876.3548	308.92578	155.96262	910.21741	270.44714	159.64333	959.92786	410.80957	56.33127	894.32819	623.59949	638.71796	1189.3335	625.31	513.24597	1163.65063	582.20636	250.01596	1155.06763	575.05383	65.5206	1097.87415	535.10577	41.79382	1054.82703	731.75891	30.95081	1082.98987	550.80475	1708.71265	1032.43579	NaN	NaN	NaN	NaN	NaN	NaN	NaN	NaN	NaN	NaN	NaN	NaN	NaN	NaN	NaN	NaN	NaN	NaN	NaN	NaN	NaN
312	3.11	654.51453	1673.1449	968.87982	661.36224	1660.82727	1100.2406	521.86664	1617.0166	974.72479	530.55493	1609.3302	1103.61365	526.54938	1456.7616	1029.90735	501.44809	1128.25696	1038.42847	637.01318	1383.28894	1023.2229	680.83411	1207.43652	1013.05652	463.82993	1283.9491	1112.56042	574.83234	1413.88562	864.26862	572.83447	1211.36011	789.86072	572.7431	1099.48584	775.05212	614.51764	955.5177	748.52008	692.25372	850.79449	784.89063	631.84967	837.41034	750.82471	685.1861	764.5802	744.66766	601.72754	1413.75464	1186.54272	569.69232	1215.37134	1276.12219	579.34558	1092.78186	1283.04834	605.55603	974.81006	1292.2688	674.95844	844.96948	1246.16138	625.7749	838.95703	1291.94177	669.76245	766.90094	1285.30103	665.8114	965.68787	915.25122	684.55066	972.35376	1135.88708	511.26288	997.09711	955.68762	531.23242	1003.98639	1123.30896	589.802	649.79407	859.77155	590.01837	486.28326	874.78406	422.91516	295.82019	876.89111	323.12415	153.03392	910.56183	284.92603	155.56526	960.43884	426.85803	55.74868	892.87567	627.14777	638.55212	1189.71606	627.90936	513.07849	1164.16858	583.06842	250.07739	1155.27087	574.646	65.86559	1098.08643	534.49231	42.27475	1054.75232	731.74359	30.9264	1083.06494	557.03613	1709.0752	1033.40381	NaN	NaN	NaN	NaN	NaN	NaN	NaN	NaN	NaN	NaN	NaN	NaN	NaN	NaN	NaN	NaN	NaN	NaN	NaN	NaN	NaN
313	3.12	660.4137	1673.27063	969.68127	667.57642	1660.95496	1100.9342	527.65344	1617.4519	975.80042	536.57751	1609.80066	1104.60474	532.23163	1457.32275	1030.2915	506.78784	1128.62036	1039.24121	642.57825	1383.50708	1023.95789	686.2384	1207.68054	1013.91498	469.75143	1284.16223	1113.46716	580.02234	1414.27356	865.13293	576.37939	1211.80823	790.78687	575.03284	1099.91235	776.16675	614.78278	955.44135	749.10303	691.25513	849.66687	785.16937	630.5838	837.09338	751.32605	682.74634	763.46912	745.01703	607.43781	1414.11707	1187.33606	575.99957	1215.62415	1276.98364	586.10797	1093.11853	1284.03467	612.68274	975.25983	1293.27148	682.26862	845.55261	1247.02124	633.36682	839.48407	1293.0376	677.6723	767.60779	1286.52417	671.63885	966.19531	916.5191	689.47479	972.37036	1137.12756	516.7663	997.51563	956.26617	536.1665	1004.08319	1124.04993	598.01569	649.97021	860.77808	599.74048	486.81326	875.77826	435.56464	293.96417	877.4566	338.16632	149.5511	910.75806	299.8429	150.96889	960.80688	444.04877	54.95583	891.79816	630.91827	637.96429	1190.01184	630.63336	512.84888	1164.44006	584.13525	250.08823	1155.34583	574.24884	66.22462	1098.24109	535.10687	42.00299	1054.78894	731.75134	30.88327	1083.1311	563.21533	1709.42419	1034.5083	NaN	NaN	NaN	NaN	NaN	NaN	NaN	NaN	NaN	NaN	NaN	NaN	NaN	NaN	NaN	NaN	NaN	NaN	NaN	NaN	NaN
314	3.13	666.32056	1673.43469	970.3454	673.73694	1661.03235	1101.6311	533.38074	1617.90283	976.75745	542.66284	1610.11157	1105.60657	537.75537	1457.61829	1031.23132	512.10754	1128.86243	1040.13196	648.13586	1383.70886	1024.65088	691.6153	1207.86194	1014.78186	475.15247	1284.50586	1114.45813	585.12537	1414.52576	866.01379	579.8504	1212.24792	791.65497	577.22076	1100.2616	777.19318	614.94006	955.48499	749.51227	690.66168	848.70447	785.39972	629.44727	836.88098	751.77942	680.51465	762.41913	745.41736	613.0766	1414.39709	1188.04541	581.83441	1215.76648	1277.52502	592.60303	1093.422	1284.9729	619.67877	975.65173	1294.23303	689.72406	846.20819	1247.99829	640.79291	840.04987	1294.02185	685.52118	768.34534	1287.64734	677.27258	966.62964	917.79529	694.32367	972.38593	1138.24292	522.34015	997.82635	956.81171	541.13531	1004.15039	1124.7356	606.13086	651.04498	861.85242	609.23645	487.35294	876.45245	448.47388	291.80096	877.86615	353.7735	145.60388	910.91864	315.47733	145.87437	961.09314	462.02084	54.0243	891.21594	633.07788	638.3194	1190.83337	633.43951	512.6684	1164.69653	585.31122	250.16411	1155.36047	574.92712	65.83937	1097.94214	533.69867	43.00273	1054.90466	731.73853	30.83763	1083.20093	569.30688	1709.75696	1035.36853	NaN	NaN	NaN	NaN	NaN	NaN	NaN	NaN	NaN	NaN	NaN	NaN	NaN	NaN	NaN	NaN	NaN	NaN	NaN	NaN	NaN
